<?xml version="1.0" standalone="no"?>
<!DOCTYPE svg PUBLIC "-//W3C//DTD SVG 20010904//EN"
 "http://www.w3.org/TR/2001/REC-SVG-20010904/DTD/svg10.dtd">
<svg version="1.0" xmlns="http://www.w3.org/2000/svg"
 width="110.000000pt" height="40.000000pt" viewBox="0 0 319.000000 150.000000"
 preserveAspectRatio="xMidYMid meet">

<g transform="translate(0.000000,150.000000) scale(0.100000,-0.100000)"
fill="#ffffdf" stroke="none">
<path d="M653 1337 c-62 -12 -116 -26 -122 -32 -9 -10 188 -1087 201 -1101 8
-8 282 46 288 57 4 5 -11 102 -32 216 -58 312 -157 835 -163 861 -7 27 -22 27
-172 -1z"/>
<path d="M2395 1338 c-6 -29 -100 -530 -155 -827 -23 -123 -44 -230 -47 -236
-2 -7 1 -16 7 -20 9 -5 260 -55 282 -55 10 0 17 28 53 218 18 97 63 336 99
531 37 194 64 356 62 359 -7 6 -245 52 -273 52 -15 0 -24 -7 -28 -22z"/>
<path d="M390 1152 c-54 -12 -76 -22 -78 -34 -2 -9 19 -133 47 -275 27 -142
62 -325 76 -408 15 -82 32 -155 39 -162 8 -9 33 -7 105 8 52 10 96 21 98 23 3
2 -12 86 -31 187 -19 101 -51 272 -71 379 -59 323 -52 300 -83 299 -15 0 -61
-8 -102 -17z"/>
<path d="M2700 1166 c0 -3 -36 -197 -80 -432 -58 -307 -78 -429 -69 -434 6 -4
43 -13 82 -19 40 -7 82 -14 94 -17 15 -4 23 0 27 13 9 28 156 815 156 835 0
23 -6 26 -97 43 -80 15 -113 18 -113 11z"/>
<path d="M930 935 c0 -22 39 -217 44 -223 8 -7 36 19 36 33 0 11 29 24 53 25
4 0 51 -87 104 -194 141 -283 152 -286 325 -85 61 71 114 129 118 129 4 0 59
-58 121 -130 174 -198 181 -197 324 84 95 187 101 196 125 191 14 -4 27 -11
28 -16 6 -15 34 -40 39 -35 8 8 42 177 43 209 0 30 -15 35 -39 13 -12 -11 -27
-12 -61 -6 -75 15 -115 12 -135 -10 -10 -11 -53 -92 -96 -181 -62 -126 -82
-159 -92 -151 -7 6 -55 61 -107 121 -98 114 -131 138 -175 121 -13 -5 -70 -63
-127 -129 -56 -65 -106 -120 -110 -120 -3 -1 -43 74 -87 165 -45 92 -89 173
-99 180 -20 16 -80 17 -137 4 -30 -7 -43 -6 -56 6 -20 18 -39 18 -39 -1z"/>
<path d="M296 827 c-17 -13 -18 -19 -7 -83 23 -131 28 -144 61 -144 36 0 35
-3 10 130 -11 58 -20 106 -20 107 0 8 -29 1 -44 -10z"/>
<path d="M2861 733 c-27 -139 -28 -135 12 -131 31 3 32 5 49 78 23 104 22 137
-1 150 -11 5 -24 10 -29 10 -5 0 -19 -48 -31 -107z"/>
</g>
</svg>
